<svg width="30" height="30" viewBox="0 0 30 30" fill="none" xmlns="http://www.w3.org/2000/svg">
<path d="M0.5 2.28571H6.28571C10.4278 2.28571 13.7857 5.64357 13.7857 9.78571V13.7857H8C3.85787 13.7857 0.5 10.4278 0.5 6.28571V2.28571Z" stroke="#897942" stroke-opacity="0.5"/>
<path d="M16.2144 16.2143H22.0001C26.1422 16.2143 29.5001 19.5722 29.5001 23.7143V27.7143H23.7144C19.5722 27.7143 16.2144 24.3564 16.2144 20.2143V16.2143Z" stroke="#897942" stroke-opacity="0.5"/>
<path d="M16.2144 8C16.2144 3.85787 19.5722 0.5 23.7144 0.5H27.7144V6.28571C27.7144 10.4278 24.3565 13.7857 20.2144 13.7857H16.2144V8Z" stroke="#897942" stroke-opacity="0.5"/>
<path d="M2.28564 23.7143C2.28564 19.5722 5.64351 16.2143 9.78564 16.2143H13.7856V22C13.7856 26.1421 10.4278 29.5 6.28564 29.5H2.28564V23.7143Z" stroke="#897942" stroke-opacity="0.5"/>
</svg>
